<svg class="hull-svg" xmlns="http://www.w3.org/2000/svg" viewBox="0 0 160 80" fill="none" aria-hidden="true">
  <!-- starter light freighter -->
  <defs>
    <linearGradient id="metal-skiff-7" x1="0" y1="0" x2="0" y2="1">
      <stop offset="0%" stop-color="#E8EEF6"/>
      <stop offset="45%" stop-color="#9AA8BC"/>
      <stop offset="100%" stop-color="#4A5568"/>
    </linearGradient>
    <linearGradient id="shade-skiff-7" x1="0" y1="0" x2="1" y2="0">
      <stop offset="0%" stop-color="#2A3340" stop-opacity=".55"/>
      <stop offset="55%" stop-color="#2A3340" stop-opacity="0"/>
    </linearGradient>
    <linearGradient id="glow-skiff-7" x1="0" y1="0" x2="1" y2="0">
      <stop offset="0%" stop-color="#FFB24A" stop-opacity=".95"/>
      <stop offset="100%" stop-color="#FF6A2A" stop-opacity=".15"/>
    </linearGradient>
    <radialGradient id="canopy-skiff-7" cx="50%" cy="40%" r="65%">
      <stop offset="0%" stop-color="#B8F0FF"/>
      <stop offset="55%" stop-color="#3AA0C8"/>
      <stop offset="100%" stop-color="#0B3A4A"/>
    </radialGradient>
  </defs>
  <ellipse cx="88" cy="64" rx="48" ry="4" fill="#000" opacity=".28"/>
  <g id="hull">
    <path fill="url(#metal-skiff-7)" d="M28 34 L108 26 L146 40 L108 54 L28 48 Z"/>
    <path fill="url(#shade-skiff-7)" d="M28 34 L108 26 L146 40 L108 54 L28 48 Z"/>
    <path stroke="#EEF3FA" stroke-width=".9" opacity=".55" d="M48 36 L100 30 M48 46 L100 50 M70 32 L70 48"/>
    <path fill="#5C6A7C" d="M52 46 L78 44 L78 56 L54 54 Z"/>
    <path stroke="#C5D0DE" stroke-width=".7" d="M56 48 L74 46.5"/>
  </g>
  <g id="canopy">
    <rect x="96" y="33" width="16" height="13" rx="2" fill="url(#canopy-skiff-7)"/>
    <rect x="98" y="35" width="5" height="4" rx="0.5" fill="#DFF7FF" opacity=".55"/>
  </g>
  <g id="thruster">
    <path fill="#3A4452" d="M18 34 L18 50 L30 54 L30 30 Z"/>
    <rect x="6" y="36" width="14" height="12" rx="2" fill="#2A3340"/>
    <ellipse cx="5" cy="42" rx="7" ry="5" fill="url(#glow-skiff-7)"/>
  </g>
  <g id="hit-flash" opacity="0"><rect width="160" height="80" fill="#fff"/></g>
</svg>
